<svg width="170" height="170" viewBox="0 0 170 170" fill="none" xmlns="http://www.w3.org/2000/svg">
<path d="M109.666 3.70815L109.426 4.59117L106.266 3.73074L105.615 6.11557L108.298 6.84502L108.056 7.72578L105.376 6.99859L104.519 10.1445L103.473 9.85993L105.459 2.56543L109.666 3.70815Z" fill="black"/>
<path d="M113.744 5.09999L113.36 12.9704L112.345 12.6158L112.449 10.4771L109.816 9.55799L108.564 11.2947L107.614 10.965L112.209 4.5625L113.744 5.09999ZM110.363 8.78112L112.494 9.52638L112.664 6.07109L112.386 5.97398L110.363 8.78112Z" fill="black"/>
<path d="M119.508 7.28118C121.049 7.9632 121.501 9.20304 120.794 10.8065L120.665 11.0955L119.671 10.6552L119.797 10.3661C120.281 9.27983 120.041 8.56618 119.11 8.15516L118.954 8.08515C118.046 7.68317 117.295 7.96998 116.807 9.07657L115.869 11.1859C115.356 12.3444 115.697 13.0513 116.577 13.442L116.744 13.5143C117.625 13.9049 118.376 13.6927 118.88 12.5545L118.99 12.306L119.98 12.7464L119.87 12.9948C119.149 14.6186 117.951 15.0386 116.509 14.4628L116.396 14.7202C116.823 14.9596 117.035 15.3639 116.839 15.8087C116.595 16.3575 116.061 16.5269 114.875 16.0007L115.094 15.5039C115.611 15.7342 115.889 15.6845 116.018 15.4068C116.131 15.147 115.998 14.9167 115.584 14.7315L115.847 14.1443C114.601 13.4555 114.185 12.306 114.877 10.7455L115.815 8.63619C116.531 7.01243 117.802 6.52463 119.354 7.21117L119.508 7.28118Z" fill="black"/>
<path d="M126.2 10.7365L124.561 18.4488L123.619 17.9384L124.062 15.8427L121.607 14.5148L120.093 16.0324L119.209 15.5536L124.769 9.96191L126.2 10.7365ZM122.272 13.835L124.258 14.91L124.975 11.5247L124.717 11.3847L122.272 13.835Z" fill="black"/>
<path d="M133.606 15.2399C135.028 16.2268 135.302 17.6293 134.264 19.122L133.035 20.8926C132.002 22.3763 130.589 22.6044 129.167 21.6198L129.075 21.5543C127.655 20.5674 127.371 19.1604 128.406 17.6767L129.633 15.9061C130.673 14.4134 132.083 14.1853 133.514 15.1767L133.606 15.2399ZM133.353 18.5304C134.043 17.5389 133.963 16.6446 133.066 16.0191L132.974 15.9558C132.072 15.3303 131.195 15.5606 130.508 16.552L129.326 18.2481C128.629 19.2508 128.72 20.1496 129.617 20.7752L129.71 20.8407C130.609 21.464 131.477 21.2291 132.173 20.2264L133.353 18.5304Z" fill="black"/>
<path d="M140.787 20.9602C142.209 22.2023 142.333 23.4535 141.007 24.9688L139.786 26.3645C138.475 27.8618 137.243 27.9295 135.797 26.6626L134.007 25.0998L138.997 19.3975L140.787 20.9602ZM135.419 25.1179L136.4 25.9738C137.318 26.7778 138.073 26.6716 138.968 25.6486L140.188 24.2552C141.099 23.2164 141.086 22.4395 140.184 21.649L139.203 20.7931L135.419 25.1179Z" fill="black"/>
<path d="M146.386 26.2683L145.738 26.9165L144.859 26.0357L140.792 30.0985L141.674 30.977L141.025 31.6252L138.496 29.098L139.145 28.4499L140.026 29.3307L144.09 25.2679L143.209 24.3894L143.857 23.7412L146.386 26.2683Z" fill="black"/>
<path d="M149.737 30.0033L145.475 36.6587L144.772 35.8479L145.927 34.0367L144.096 31.9274L142.139 32.8127L141.479 32.0539L148.67 28.7725L149.737 30.0033ZM144.959 31.5231L146.442 33.2327L148.311 30.3104L148.119 30.0891L144.959 31.5231Z" fill="black"/>
<path d="M153.596 34.7379C154.592 36.0929 154.36 37.3983 152.922 38.4552L152.676 38.6358L152.034 37.7619L152.278 37.5812C153.254 36.8653 153.417 36.1155 152.814 35.298L152.714 35.1602C152.127 34.3608 151.326 34.2456 150.352 34.9615L148.513 36.312C147.484 37.0663 147.43 37.8499 147.997 38.6246L148.106 38.7691C148.673 39.5415 149.439 39.7244 150.468 38.9678L150.895 38.6539L151.55 39.546L148.992 41.4227L148.503 40.761L149.105 40.3183L148.944 40.1015C148.248 40.106 147.66 39.7831 147.211 39.1733L147.111 39.0378C146.227 37.8364 146.37 36.5423 147.871 35.438L149.71 34.0875C151.148 33.0329 152.49 33.2361 153.496 34.6002L153.596 34.7379Z" fill="black"/>
<path d="M156.996 39.88L153.317 45.2255L153.428 45.4085L158.488 42.3213L159.008 43.1704L152.537 47.118L151.719 45.7766L155.396 40.431L155.286 40.2481L150.225 43.3353L149.712 42.4974L156.183 38.5498L156.996 39.88Z" fill="black"/>
<path d="M161.231 47.2636C161.999 48.8106 161.57 50.1723 159.945 50.9808L158.012 51.9429C156.396 52.7469 155.049 52.2704 154.276 50.7256L154.229 50.624C153.458 49.0816 153.885 47.7085 155.499 46.9045L157.431 45.9424C159.059 45.1339 160.404 45.6082 161.181 47.1642L161.231 47.2636ZM159.429 50.0278C160.512 49.4881 160.869 48.666 160.383 47.6881L160.331 47.5865C159.843 46.6064 158.966 46.3896 157.883 46.9271L156.032 47.8485C154.941 48.3928 154.588 49.2238 155.079 50.2017L155.126 50.3033C155.616 51.2835 156.489 51.4912 157.578 50.947L159.429 50.0278ZM162.024 47.311L161.59 46.4438L163.251 46.8638L163.785 47.9343L162.024 47.311Z" fill="black"/>
<path d="M164.033 53.5628C164.576 54.9246 164.198 56.0809 163.046 56.5393L162.322 56.8284L161.92 55.8212L162.643 55.5344C163.251 55.2927 163.545 54.7146 163.211 53.8767L163.174 53.7819C162.844 52.9553 162.259 52.7385 161.703 52.9598L161.567 53.014C160.98 53.2466 160.917 53.757 160.948 55.1166C160.984 56.7652 160.747 57.6008 159.698 58.0163L159.572 58.066C158.575 58.4634 157.463 58.0434 156.823 56.4422L156.783 56.3383C156.157 54.7665 156.67 53.6757 157.843 53.2082L158.514 52.9418L158.914 53.9467L158.243 54.2155C157.499 54.5091 157.255 55.1166 157.619 56.0289L157.657 56.1215C158.014 57.0226 158.607 57.2868 159.172 57.061L159.287 57.0158C159.843 56.7945 160.003 56.2819 159.951 54.8094C159.881 53.3212 160.062 52.4359 161.143 52.0068L161.289 51.9481C162.388 51.51 163.416 52.0113 163.99 53.4589L164.033 53.5628Z" fill="black"/>
<path d="M166.89 62.0896L166.015 62.3674L165.34 60.231L158.982 62.2409L158.649 61.1953L165.007 59.1854L164.334 57.049L165.206 56.7734L166.89 62.0896Z" fill="black"/>
<path d="M167.974 66.6662L167.085 66.8807L166.794 65.677L161.222 67.023L161.514 68.229L160.626 68.4435L159.787 64.9814L160.675 64.7669L160.967 65.9706L166.538 64.6246L166.247 63.4186L167.135 63.2041L167.974 66.6662Z" fill="black"/>
<path d="M168.883 70.8243C169.166 72.482 168.384 73.5434 166.657 73.837L166.345 73.8912L166.162 72.823L166.476 72.7688C167.645 72.5701 168.106 71.9761 167.934 70.9734L167.904 70.8085C167.739 69.8284 167.086 69.3654 165.895 69.5687L163.621 69.9549C162.376 70.1672 161.974 70.8424 162.136 71.7887L162.166 71.9671C162.326 72.9133 162.916 73.4192 164.143 73.2114L164.41 73.1663L164.593 74.2345L164.324 74.2796C162.509 74.589 161.495 73.7534 161.219 72.1297L161.189 71.9603C160.914 70.3365 161.603 69.2006 163.441 68.8867L165.712 68.5005C167.461 68.2024 168.569 68.9883 168.854 70.6572L168.883 70.8243Z" fill="black"/>
<path d="M169.767 77.8686C169.91 79.5917 169.001 80.7006 167.186 80.8496L165.032 81.028C163.226 81.1771 162.15 80.2331 162.008 78.5077L161.999 78.397C161.857 76.6717 162.763 75.5538 164.566 75.4047L166.72 75.2263C168.535 75.0773 169.613 76.019 169.756 77.7557L169.767 77.8686ZM167.062 79.7701C168.269 79.6708 168.908 79.0384 168.818 77.9454L168.809 77.8347C168.718 76.7417 167.984 76.2109 166.777 76.3103L164.711 76.4797C163.495 76.5813 162.856 77.225 162.946 78.318L162.955 78.4309C163.045 79.524 163.78 80.0411 164.998 79.9418L167.062 79.7701Z" fill="black"/>
<path d="M169.944 87.0311C169.896 88.9191 169.015 89.8134 167.001 89.7637L165.148 89.7208C163.156 89.6711 162.318 88.77 162.363 86.8459L162.422 84.4746L170 84.6598L169.944 87.0311ZM163.312 85.5699L163.281 86.8707C163.251 88.0902 163.816 88.6029 165.172 88.6345L167.028 88.6797C168.407 88.7136 168.997 88.2077 169.026 87.0108L169.058 85.7099L163.312 85.5699Z" fill="black"/>
<path d="M169.562 94.2698C169.377 95.9907 168.278 96.9053 166.468 96.7111L164.321 96.4808C162.524 96.2888 161.645 95.1596 161.83 93.441L161.839 93.3281C162.027 91.6095 163.125 90.6836 164.922 90.8755L167.071 91.1059C168.879 91.3001 169.759 92.4293 169.573 94.1592L169.562 94.2698ZM166.549 95.6294C167.752 95.7581 168.5 95.259 168.62 94.1705L168.629 94.0575C168.746 92.9668 168.122 92.3096 166.922 92.1809L164.863 91.9595C163.652 91.8308 162.901 92.3412 162.782 93.4297L162.772 93.5426C162.655 94.6334 163.281 95.2793 164.492 95.408L166.549 95.6294Z" fill="black"/>
<path d="M167.542 105.266L166.647 105.074L167.338 101.876L164.92 101.355L164.337 104.067L163.442 103.875L164.027 101.163L160.838 100.474L161.066 99.417L168.459 101.009L167.542 105.266Z" fill="black"/>
<path d="M166.885 107.712L162.077 106.289C161.103 106 160.346 106.165 160.039 107.204L160.007 107.312C159.695 108.363 160.24 108.911 161.214 109.2L166.024 110.623L165.712 111.671L160.914 110.253C159.236 109.756 158.624 108.6 159.087 107.041L159.119 106.933C159.58 105.375 160.717 104.756 162.396 105.255L167.192 106.673L166.885 107.712Z" fill="black"/>
<path d="M163.298 118.118L162.444 117.788L163.249 115.701L157.033 113.305L157.426 112.284L163.644 114.678L164.449 112.589L165.305 112.919L163.298 118.118Z" fill="black"/>
<path d="M162.35 120.192L157.818 118.033C156.898 117.597 156.125 117.642 155.659 118.622L155.61 118.724C155.137 119.713 155.589 120.341 156.509 120.779L161.041 122.936L160.568 123.925L156.046 121.773C154.464 121.018 154.041 119.779 154.742 118.311L154.789 118.209C155.49 116.739 156.71 116.307 158.295 117.06L162.817 119.212L162.35 120.192Z" fill="black"/>
<path d="M158.498 127.566C157.734 128.882 156.701 129.314 155.53 128.636L155.092 128.381C154.28 127.913 153.957 127.191 154.115 126.33L150.594 126.129L151.172 125.136L154.493 125.325L155.182 124.135L152.614 122.649L153.157 121.712L159.696 125.499L158.498 127.566ZM155.962 124.587L155.351 125.639C154.899 126.421 154.956 127.064 155.659 127.471L156.048 127.697C156.741 128.099 157.309 127.816 157.761 127.035L158.373 125.982L155.962 124.587Z" fill="black"/>
<path d="M154.841 133.516C153.853 134.934 152.449 135.21 150.955 134.173L149.183 132.943C147.698 131.911 147.47 130.499 148.456 129.081L148.521 128.988C149.509 127.57 150.917 127.285 152.402 128.317L154.174 129.546C155.668 130.585 155.896 131.994 154.904 133.424L154.841 133.516ZM151.548 133.263C152.54 133.952 153.435 133.873 154.061 132.974L154.124 132.882C154.75 131.983 154.52 131.107 153.527 130.418L151.83 129.239C150.827 128.543 149.927 128.631 149.301 129.53L149.235 129.623C148.612 130.522 148.847 131.389 149.85 132.084L151.548 133.263Z" fill="black"/>
<path d="M149.129 140.671C147.891 142.094 146.643 142.218 145.126 140.9L143.73 139.685C142.229 138.381 142.161 137.155 143.42 135.708L144.977 133.919L150.687 138.885L149.129 140.671ZM144.964 135.328L144.112 136.308C143.312 137.227 143.418 137.979 144.442 138.867L145.838 140.082C146.876 140.988 147.651 140.974 148.438 140.071L149.292 139.093L144.964 135.328Z" fill="black"/>
<path d="M143.816 146.247L136.927 142.408L137.693 141.658L139.567 142.701L141.56 140.75L140.559 138.858L141.275 138.155L144.98 145.113L143.816 146.247ZM142.014 141.586L140.401 143.164L143.425 144.847L143.633 144.644L142.014 141.586Z" fill="black"/>
<path d="M137.683 151.713C136.531 152.623 135.313 152.591 134.542 151.618L134.058 151.008L134.91 150.335L135.394 150.947C135.801 151.46 136.438 151.575 137.146 151.015L137.225 150.954C137.925 150.398 137.966 149.777 137.595 149.31L137.505 149.192C137.114 148.698 136.603 148.784 135.308 149.201C133.737 149.707 132.867 149.719 132.169 148.833L132.083 148.727C131.418 147.885 131.502 146.697 132.858 145.627L132.946 145.556C134.275 144.509 135.468 144.689 136.253 145.681L136.7 146.248L135.85 146.918L135.403 146.351C134.906 145.724 134.253 145.663 133.482 146.27L133.4 146.333C132.641 146.936 132.555 147.575 132.935 148.054L133.012 148.151C133.382 148.621 133.92 148.628 135.319 148.158C136.727 147.664 137.629 147.585 138.35 148.497L138.447 148.621C139.184 149.552 138.994 150.678 137.772 151.643L137.683 151.713Z" fill="black"/>
<path d="M133.446 154.742L130.656 150.58C130.091 149.738 129.407 149.381 128.505 149.984L128.41 150.047C127.501 150.655 127.569 151.425 128.134 152.267L130.919 156.429L130.01 157.039L127.23 152.886C126.256 151.434 126.525 150.153 127.876 149.25L127.971 149.187C129.321 148.283 130.591 148.534 131.563 149.988L134.343 154.139L133.446 154.742Z" fill="black"/>
<path d="M125.644 159.561L119.993 154.051L120.931 153.527L122.468 155.022L124.905 153.66L124.432 151.569L125.311 151.079L127.063 158.769L125.644 159.561ZM125.124 154.586L123.151 155.688L125.632 158.107L125.888 157.963L125.124 154.586Z" fill="black"/>
<path d="M116.33 163.951L115.968 163.111L119.063 161.788L118.134 159.62L115.455 160.765L115.101 159.936L117.777 158.789L116.802 156.517L113.656 157.865L113.297 157.025L117.44 155.25L120.421 162.201L116.33 163.951Z" fill="black"/>
<path d="M112.981 165.177L110.278 161.862L110.052 161.934L109.837 166.207L108.262 166.724L105.904 159.543L106.924 159.211L108.82 164.988L109.046 164.913L109.252 160.762L110.366 160.396L112.983 163.633L113.221 163.556L111.322 157.77L112.276 157.456L114.633 164.638L112.981 165.177Z" fill="black"/>
<path d="M103.964 167.747C102.314 168.124 101.442 167.595 101.141 166.288L101.001 165.671C100.716 164.431 101.282 163.515 102.909 163.142L104.208 162.844L103.576 160.086L104.633 159.845L106.319 167.209L103.964 167.747ZM104.412 163.736L103.137 164.027C102.224 164.237 101.894 164.716 102.061 165.452L102.192 166.024C102.364 166.771 102.87 167.062 103.784 166.852L105.061 166.561L104.412 163.736Z" fill="black"/>
<path d="M97.5363 168.96C96.0288 169.181 95.0456 168.644 94.8467 167.302L94.7721 166.801C94.6342 165.873 94.9981 165.17 95.7711 164.759L93.7324 161.875L94.8738 161.708L96.795 164.425L98.1579 164.222L97.7239 161.286L98.7952 161.128L99.905 168.608L97.5363 168.96ZM98.2912 165.116L97.0843 165.295C96.1892 165.428 95.7191 165.873 95.8389 166.677L95.9045 167.124C96.022 167.917 96.5983 168.185 97.4911 168.052L98.7003 167.874L98.2912 165.116Z" fill="black"/>
<path d="M88.9804 169.831L88.9148 168.919L92.2757 168.672L92.1017 166.317L89.1928 166.531L89.125 165.628L92.0361 165.416L91.8531 162.947L88.4357 163.198L88.3701 162.286L92.8702 161.956L93.4239 169.506L88.9804 169.831Z" fill="black"/>
<path d="M84.7794 169.997C83.3103 169.974 82.3814 169.179 82.4017 167.937L82.413 167.158L83.5002 167.174L83.4866 167.953C83.4776 168.608 83.9002 169.103 84.8043 169.116H84.906C85.801 169.13 86.226 168.673 86.235 168.075L86.2373 167.926C86.2463 167.294 85.7988 167.038 84.5263 166.544C82.9871 165.945 82.3045 165.403 82.3226 164.272L82.3249 164.136C82.3384 163.064 83.1566 162.194 84.8879 162.221H85.0009C86.6983 162.248 87.5097 163.143 87.4894 164.407L87.4781 165.132L86.3932 165.114L86.4045 164.392C86.4158 163.59 85.948 163.129 84.9648 163.116L84.8631 163.113C83.8889 163.098 83.4188 163.545 83.4098 164.154L83.4075 164.279C83.3985 164.877 83.8121 165.223 85.1953 165.742C86.6034 166.248 87.3515 166.756 87.3334 167.921L87.3312 168.08C87.3154 169.267 86.4542 170.022 84.8924 169.999L84.7794 169.997Z" fill="black"/>
<path d="M77.535 169.576L75.876 161.854L76.9496 161.938L77.4039 164.034L80.1884 164.246L80.9546 162.243L81.9581 162.32L79.1555 169.7L77.535 169.576ZM79.8584 165.14L77.6005 164.969L78.3305 168.356L78.6221 168.379L79.8584 165.14Z" fill="black"/>
<path d="M60.8252 166.443L61.0603 165.558L64.2313 166.398L64.8664 164.004L62.1768 163.293L62.4096 162.407L65.0992 163.121L65.9377 159.964L66.9865 160.242L65.045 167.561L60.8252 166.443Z" fill="black"/>
<path d="M56.7393 165.076L57.0715 157.196L58.0863 157.544L58.0004 159.685L60.6403 160.586L61.8834 158.84L62.835 159.163L58.2784 165.602L56.7393 165.076ZM60.0979 161.367L57.9598 160.638L57.8151 164.096L58.0931 164.19L60.0979 161.367Z" fill="black"/>
<path d="M50.9709 162.901C49.4294 162.228 48.9706 160.994 49.6713 159.391L49.7978 159.102L50.7901 159.536L50.6635 159.825C50.1888 160.911 50.4352 161.62 51.3641 162.027L51.5201 162.094C52.431 162.492 53.1746 162.2 53.6582 161.094L54.5804 158.985C55.0844 157.826 54.7386 157.124 53.8616 156.74L53.6967 156.667C52.8152 156.284 52.0693 156.5 51.5721 157.636L51.4636 157.885L50.4691 157.451L50.5776 157.203C51.2873 155.579 52.4829 155.154 53.9249 155.721L54.0357 155.464C53.6108 155.227 53.3915 154.825 53.5859 154.38C53.8255 153.831 54.3589 153.657 55.5478 154.176L55.3308 154.673C54.8132 154.447 54.5329 154.497 54.4109 154.775C54.2979 155.035 54.4312 155.265 54.8448 155.446L54.5872 156.035C55.8303 156.713 56.2552 157.858 55.5726 159.418L54.6505 161.527C53.9408 163.151 52.6773 163.646 51.1268 162.968L50.9709 162.901Z" fill="black"/>
<path d="M44.2275 159.495L45.8368 151.765L46.7815 152.273L46.3476 154.373L48.8089 155.692L50.321 154.168L51.207 154.644L45.6628 160.265L44.2275 159.495ZM48.1467 156.376L46.1532 155.308L45.4503 158.7L45.708 158.84L48.1467 156.376Z" fill="black"/>
<path d="M36.868 155.073C35.444 154.098 35.1593 152.7 36.1854 151.202L37.4036 149.425C38.4252 147.934 39.8333 147.697 41.2595 148.673L41.3522 148.736C42.7761 149.712 43.0722 151.116 42.0506 152.605L40.8323 154.382C39.8062 155.879 38.3959 156.119 36.9629 155.136L36.868 155.073ZM37.0985 151.785C36.4159 152.781 36.5018 153.673 37.4059 154.292L37.4986 154.355C38.4026 154.974 39.2751 154.739 39.9576 153.743L41.1262 152.04C41.8133 151.035 41.7183 150.136 40.8165 149.518L40.7238 149.454C39.8198 148.836 38.9564 149.077 38.267 150.082L37.0985 151.785Z" fill="black"/>
<path d="M29.6115 149.363C28.1831 148.13 28.0497 146.883 29.3629 145.363L30.5743 143.961C31.8739 142.457 33.1012 142.382 34.5545 143.636L36.3514 145.185L31.4061 150.912L29.6115 149.363ZM34.941 145.176L33.9578 144.329C33.0334 143.532 32.2808 143.642 31.3948 144.668L30.1856 146.07C29.286 147.114 29.3019 147.888 30.2082 148.67L31.1914 149.516L34.941 145.176Z" fill="black"/>
<path d="M23.9805 144.087L24.6224 143.437L25.5061 144.309L29.536 140.23L28.6523 139.358L29.2942 138.708L31.8346 141.213L31.1905 141.863L30.3067 140.991L26.2791 145.07L27.1628 145.942L26.5209 146.592L23.9805 144.087Z" fill="black"/>
<path d="M20.6133 140.373L24.8218 133.706L25.5292 134.51L24.3878 136.323L26.2276 138.417L28.1736 137.52L28.8358 138.275L21.6846 141.592L20.6133 140.373ZM25.3687 138.826L23.8793 137.13L22.0327 140.057L22.2271 140.276L25.3687 138.826Z" fill="black"/>
<path d="M16.6964 135.673C15.6884 134.322 15.9121 133.015 17.3451 131.946L17.5915 131.766L18.2401 132.635L17.9938 132.816C17.0242 133.541 16.8659 134.293 17.4739 135.108L17.5756 135.244C18.1701 136.041 18.9702 136.149 19.9421 135.427L21.7728 134.062C22.7989 133.299 22.8487 132.515 22.2746 131.745L22.1661 131.599C21.592 130.828 20.8258 130.652 19.7997 131.416L19.3748 131.734L18.7103 130.844L21.2597 128.947L21.7525 129.609L21.1535 130.056L21.3163 130.273C22.0146 130.262 22.6046 130.582 23.0566 131.19L23.1583 131.325C24.0511 132.52 23.9177 133.819 22.4215 134.932L20.5907 136.296C19.1578 137.364 17.8107 137.168 16.7981 135.808L16.6964 135.673Z" fill="black"/>
<path d="M13.308 130.574L16.9627 125.217L16.8475 125.036L11.8073 128.141L11.2852 127.294L17.7312 123.324L18.5562 124.661L14.9037 130.016L15.0145 130.199L20.0569 127.091L20.5723 127.929L14.1262 131.899L13.308 130.574Z" fill="black"/>
<path d="M8.23298 123.201L8.67146 124.066L7.00796 123.658L6.46777 122.592L8.23298 123.201ZM9.02405 123.244C8.24428 121.704 8.66694 120.34 10.2875 119.518L12.2109 118.545C13.8224 117.729 15.174 118.195 15.9538 119.735L16.0035 119.834C16.7855 121.374 16.3697 122.75 14.7581 123.565L12.8347 124.538C11.2142 125.36 9.86257 124.893 9.07603 123.344L9.02405 123.244ZM10.8073 120.469C9.72922 121.015 9.37664 121.837 9.87162 122.815L9.92134 122.915C10.4186 123.892 11.2978 124.102 12.3736 123.558L14.218 122.625C15.3051 122.072 15.6554 121.239 15.1582 120.263L15.1085 120.164C14.6135 119.186 13.7388 118.985 12.6494 119.536L10.8073 120.469Z" fill="black"/>
<path d="M6.13399 116.903C5.5825 115.541 5.95317 114.378 7.10813 113.913L7.83139 113.619L8.23822 114.626L7.51496 114.918C6.90697 115.164 6.61767 115.744 6.95669 116.582L6.99512 116.677C7.32962 117.506 7.91727 117.718 8.47328 117.495L8.60889 117.438C9.19428 117.201 9.2553 116.688 9.21688 115.326C9.17168 113.676 9.40448 112.838 10.4532 112.413L10.5798 112.364C11.5743 111.962 12.6931 112.373 13.3417 113.976L13.3847 114.08C14.022 115.652 13.5135 116.747 12.3405 117.223L11.6692 117.495L11.2624 116.487L11.9314 116.216C12.6772 115.916 12.9168 115.306 12.5484 114.396L12.51 114.301C12.1461 113.4 11.5517 113.138 10.9866 113.368L10.8713 113.416C10.3153 113.639 10.1571 114.154 10.2181 115.629C10.2973 117.122 10.121 118.009 9.04059 118.448L8.89368 118.504C7.79296 118.951 6.76232 118.454 6.17693 117.007L6.13399 116.903Z" fill="black"/>
<path d="M3.27246 108.386L4.14263 108.106L4.82521 110.236L11.165 108.206L11.4995 109.249L5.15972 111.279L5.84456 113.409L4.97212 113.687L3.27246 108.386Z" fill="black"/>
<path d="M2.125 103.833L3.01325 103.611L3.3116 104.817L8.88522 103.435L8.58462 102.229L9.47287 102.008L10.334 105.472L9.44575 105.691L9.14514 104.487L3.57378 105.87L3.87439 107.076L2.98613 107.295L2.125 103.833Z" fill="black"/>
<path d="M1.19483 99.6838C0.903263 98.0261 1.67851 96.9579 3.40529 96.6553L3.7172 96.5989L3.90705 97.6671L3.59515 97.7235C2.42437 97.929 1.96781 98.5252 2.14411 99.528L2.17349 99.6951C2.34752 100.675 3.00072 101.134 4.1941 100.924L6.46785 100.522C7.71321 100.303 8.111 99.6251 7.94375 98.6788L7.91211 98.5004C7.74485 97.5541 7.15042 97.0483 5.9254 97.2651L5.6587 97.3125L5.46884 96.2443L5.73781 96.1969C7.55274 95.8762 8.57208 96.7073 8.85912 98.3333L8.88851 98.5004C9.17555 100.124 8.49297 101.267 6.65544 101.59L4.38169 101.992C2.63457 102.299 1.52029 101.52 1.22421 99.8509L1.19483 99.6838Z" fill="black"/>
<path d="M0.282496 92.6923C0.124283 90.9715 1.02158 89.8604 2.82973 89.6932L4.98143 89.4968C6.77602 89.3296 7.86091 90.2601 8.02138 91.981L8.02816 92.0916C8.18863 93.8125 7.2936 94.9349 5.49449 95.0998L3.34731 95.2985C1.5369 95.4656 0.45427 94.5329 0.293797 92.803L0.282496 92.6923ZM2.96308 90.7682C1.76066 90.8789 1.12781 91.5157 1.22725 92.6043L1.23856 92.7172C1.338 93.8057 2.07709 94.3274 3.28177 94.2167L5.33854 94.027C6.55226 93.9164 7.18737 93.2682 7.08566 92.1797L7.07436 92.0668C6.97491 90.9782 6.23809 90.4679 5.02211 90.5785L2.96308 90.7682Z" fill="black"/>
<path d="M0.0429436 83.5009C0.0791066 81.6129 0.951539 80.7118 2.96763 80.7502L4.82324 80.7818C6.81447 80.8202 7.65752 81.7168 7.62135 83.6386L7.57615 86.0122L0 85.8722L0.0429436 83.5009ZM6.68338 84.9214L6.70598 83.6206C6.72858 82.4011 6.16127 81.8929 4.8029 81.8681L2.94954 81.8342C1.56857 81.8094 0.980921 82.3198 0.95832 83.5167L0.935718 84.8175L6.68338 84.9214Z" fill="black"/>
<path d="M0.383909 76.2544C0.557944 74.538 1.64961 73.6143 3.46229 73.7973L5.6072 74.0141C7.40631 74.197 8.29231 75.3194 8.11827 77.038L8.10697 77.1509C7.93294 78.8696 6.83901 79.8022 5.0399 79.6216L2.89272 79.4025C1.08231 79.2196 0.196314 78.0972 0.372608 76.3673L0.383909 76.2544ZM3.38544 74.879C2.18302 74.7571 1.43942 75.2607 1.32867 76.3515L1.31737 76.4644C1.20662 77.5529 1.83269 78.2079 3.03737 78.3275L5.09414 78.5376C6.30786 78.6595 7.05372 78.1446 7.16221 77.0538L7.17577 76.9432C7.28652 75.8524 6.65819 75.2087 5.44221 75.0868L3.38544 74.879Z" fill="black"/>
<path d="M2.31465 65.2285L3.21194 65.416L2.54293 68.6228L4.96585 69.1287L5.53316 66.4074L6.43045 66.5948L5.86314 69.3162L9.06131 69.9824L8.83981 71.0461L1.42188 69.4991L2.31465 65.2285Z" fill="black"/>
<path d="M2.96076 62.782L7.784 64.1754C8.76266 64.4577 9.51757 64.2861 9.81817 63.245L9.84981 63.1366C10.1549 62.0819 9.60571 61.5377 8.62931 61.2554L3.80607 59.862L4.10894 58.8096L8.92314 60.1985C10.607 60.684 11.2263 61.8403 10.7742 63.4031L10.7426 63.5115C10.2906 65.0743 9.15594 65.6998 7.4721 65.2143L2.66016 63.8231L2.96076 62.782Z" fill="black"/>
<path d="M6.46924 52.4023L7.32585 52.7253L6.53478 54.821L12.7706 57.1743L12.3819 58.2018L6.14603 55.8463L5.35497 57.9421L4.49609 57.6192L6.46924 52.4023Z" fill="black"/>
<path d="M7.4565 50.2516L11.9882 52.3948C12.9081 52.8284 13.6788 52.781 14.1421 51.8031L14.1896 51.6992C14.6597 50.7101 14.2054 50.0845 13.2878 49.6509L8.75611 47.5077L9.22397 46.5186L13.7466 48.655C15.3287 49.4047 15.7537 50.6401 15.0598 52.1103L15.01 52.2119C14.3162 53.6821 13.0979 54.1157 11.5135 53.3682L6.99316 51.2318L7.4565 50.2516Z" fill="black"/>
<path d="M11.2471 42.851C12.0043 41.5299 13.0372 41.094 14.2125 41.767L14.6555 42.0199C15.4646 42.4852 15.7923 43.2078 15.6364 44.0683L19.1645 44.2557L18.5927 45.2539L15.2657 45.0778L14.5809 46.2724L17.1552 47.7494L16.6173 48.6889L10.0537 44.9264L11.2471 42.851ZM13.7966 45.823L14.4046 44.7661C14.8543 43.9824 14.7933 43.3366 14.0904 42.9323L13.6971 42.7087C13.001 42.309 12.4337 42.5958 11.9839 43.3772L11.3782 44.4364L13.7966 45.823Z" fill="black"/>
<path d="M14.8336 36.9529C15.81 35.5301 17.209 35.2455 18.7075 36.2708L20.4863 37.4881C21.978 38.5089 22.2153 39.9158 21.2389 41.3409L21.1756 41.4334C20.1992 42.8562 18.7934 43.1521 17.3039 42.1313L15.5252 40.914C14.0267 39.8887 13.7871 38.4795 14.7703 37.0477L14.8336 36.9529ZM18.1244 37.1832C17.1276 36.5012 16.2349 36.587 15.6156 37.4903L15.5523 37.5829C14.933 38.4863 15.1681 39.358 16.1648 40.04L17.869 41.2076C18.8748 41.8941 19.7743 41.7993 20.3936 40.8982L20.4569 40.8056C21.0762 39.9023 20.8344 39.0396 19.8286 38.3508L18.1244 37.1832Z" fill="black"/>
<path d="M20.5062 29.743C21.7403 28.3157 22.9879 28.1825 24.509 29.4969L25.9126 30.7051C27.4179 32.0036 27.4925 33.2299 26.2381 34.6843L24.6876 36.4775L18.958 31.5362L20.5062 29.743ZM24.6966 35.0682L25.5442 34.0859C26.342 33.1622 26.2313 32.4102 25.2052 31.5249L23.8016 30.3167C22.7574 29.4178 21.9821 29.4336 21.2001 30.3392L20.3525 31.3216L24.6966 35.0682Z" fill="black"/>
<path d="M25.7637 24.1221L32.6911 27.9251L31.9295 28.6817L30.0445 27.6519L28.06 29.6167L29.0748 31.5092L28.3606 32.216L24.6064 25.2693L25.7637 24.1221ZM27.5989 28.7833L29.2059 27.1912L26.166 25.5223L25.9558 25.73L27.5989 28.7833Z" fill="black"/>
<path d="M31.9024 18.5842C33.0506 17.665 34.2711 17.6876 35.0486 18.6587L35.5368 19.2662L34.6892 19.9459L34.201 19.3362C33.7897 18.8235 33.1523 18.7151 32.4449 19.2797L32.3658 19.343C31.6674 19.9008 31.6312 20.5241 32.0064 20.9916L32.0968 21.1067C32.4946 21.5991 33.0031 21.511 34.2982 21.0842C35.8668 20.5647 36.7392 20.5489 37.4444 21.4319L37.5303 21.5381C38.2016 22.3759 38.127 23.5661 36.7754 24.6456L36.6872 24.7156C35.3628 25.777 34.1671 25.6031 33.3738 24.6162L32.9218 24.0516L33.7693 23.3741L34.2214 23.9387C34.7254 24.5643 35.3786 24.6208 36.1471 24.0065L36.2262 23.9432C36.9856 23.3357 37.0647 22.6921 36.6827 22.2156L36.6059 22.1185C36.2307 21.651 35.6905 21.6465 34.2937 22.1275C32.8879 22.6311 31.9838 22.717 31.256 21.8091L31.1566 21.6849C30.4152 20.759 30.596 19.6298 31.8143 18.6542L31.9024 18.5842Z" fill="black"/>
<path d="M36.1219 15.5381L38.9404 19.6844C39.5099 20.5245 40.1993 20.8769 41.0966 20.2671L41.1892 20.2039C42.0978 19.5896 42.0233 18.8195 41.4537 17.9794L38.6352 13.833L39.5416 13.2188L42.3532 17.3561C43.3364 18.8014 43.0765 20.0842 41.7294 20.9965L41.6368 21.062C40.2897 21.9744 39.0195 21.7328 38.0363 20.2852L35.2246 16.1478L36.1219 15.5381Z" fill="black"/>
<path d="M43.8436 10.7002L49.5325 16.1767L48.599 16.7074L47.0508 15.2214L44.6256 16.599L45.1093 18.688L44.2346 19.1849L42.4287 11.5042L43.8436 10.7002ZM44.3973 15.6754L46.3637 14.5597L43.8662 12.1568L43.6108 12.3014L44.3973 15.6754Z" fill="black"/>
<path d="M53.178 6.2334L53.5441 7.07126L50.4612 8.41498L51.4037 10.5762L54.073 9.41091L54.4369 10.2375L51.7654 11.405L52.7553 13.6679L55.8902 12.2993L56.2563 13.1372L52.1292 14.9371L49.1006 8.01299L53.178 6.2334Z" fill="black"/>
<path d="M56.5249 4.97086L59.253 8.2771L59.479 8.20258L59.6689 3.92073L61.2442 3.39453L63.6468 10.5739L62.6297 10.9149L60.695 5.13798L60.4712 5.21251L60.2882 9.3724L59.1716 9.74503L56.5295 6.51783L56.2944 6.59689L58.2314 12.3851L57.2776 12.7035L54.875 5.52191L56.5249 4.97086Z" fill="black"/>
<path d="M65.5208 2.35086C67.1708 1.96243 68.05 2.48637 68.3574 3.79622L68.502 4.41049C68.7958 5.65485 68.233 6.574 66.6057 6.95566L65.3084 7.2628L65.957 10.0203L64.9015 10.2687L63.168 2.90416L65.5208 2.35086ZM65.0982 6.37075L66.3729 6.07039C67.2883 5.85584 67.6138 5.37481 67.442 4.63633L67.3086 4.06496C67.1301 3.31744 66.6215 3.03063 65.7107 3.24743L64.4337 3.54554L65.0982 6.37075Z" fill="black"/>
<path d="M71.9331 1.1056C73.4429 0.872988 74.4284 1.40596 74.6363 2.74517L74.7132 3.24878C74.8555 4.17471 74.4962 4.88158 73.7255 5.29938L75.7822 8.16975L74.6408 8.3459L72.7016 5.64039L71.3387 5.85042L71.793 8.78628L70.7194 8.95115L69.5645 1.47145L71.9331 1.1056ZM71.2008 4.9561L72.4078 4.76866C73.3028 4.6309 73.7707 4.18375 73.6464 3.37977L73.5763 2.93261C73.4542 2.13993 72.8756 1.8757 71.9829 2.0112L70.7759 2.19865L71.2008 4.9561Z" fill="black"/>
<path d="M80.4787 0.185547L80.551 1.09792L77.1901 1.36442L77.3777 3.71989L80.2888 3.48952L80.3589 4.39061L77.45 4.62096L77.6467 7.08935L81.0618 6.81835L81.1364 7.73074L76.6364 8.08981L76.0352 0.537847L80.4787 0.185547Z" fill="black"/>
<path d="M84.4821 0.000486235C85.9535 -0.0220974 86.9028 0.743487 86.9231 1.98784L86.9344 2.76698L85.8473 2.78279L85.8382 2.00365C85.8269 1.34873 85.3884 0.869955 84.4844 0.883505L84.3827 0.885764C83.4899 0.897056 83.0785 1.36679 83.0876 1.96752L83.0898 2.11431C83.0989 2.74665 83.5554 2.9883 84.8415 3.44223C86.3988 3.99779 87.0971 4.51721 87.1152 5.64639L87.1175 5.78415C87.1333 6.85687 86.3422 7.75118 84.6132 7.77602L84.5002 7.77828C82.8028 7.80538 81.9643 6.93591 81.9439 5.66897L81.9326 4.9463L83.0198 4.93049L83.0288 5.65316C83.0424 6.45488 83.5238 6.89978 84.5092 6.88623L84.6109 6.88397C85.5828 6.87042 86.0394 6.40971 86.0303 5.79996L86.0281 5.67575C86.019 5.07728 85.5964 4.74304 84.1973 4.26879C82.7757 3.80357 82.0095 3.31802 81.9914 2.1527L81.9891 1.99462C81.971 0.806721 82.8073 0.0275866 84.3691 0.0027446L84.4821 0.000486235Z" fill="black"/>
<path d="M91.9216 0.372684L93.6235 8.08047L92.5522 8.00594L92.0866 5.91019L89.3021 5.71597L88.5471 7.72365L87.5459 7.65364L90.2988 0.259766L91.9216 0.372684ZM89.6253 4.82166L91.8809 4.97974L91.1328 1.59897L90.8412 1.57639L89.6253 4.82166Z" fill="black"/>
</svg>
